<mxfile host="app.diagrams.net" modified="2022-03-09T03:43:28.461Z" agent="5.0 (Windows)" etag="y06rNxGSM5KuH3Y-EKSs" version="17.0.0" type="github">
  <diagram id="2RH8-At6zr4JO2N2CYxe" name="Page-1">
    <mxGraphModel dx="1245" dy="443" grid="1" gridSize="10" guides="1" tooltips="1" connect="1" arrows="1" fold="1" page="1" pageScale="1" pageWidth="850" pageHeight="1100" math="0" shadow="0">
      <root>
        <mxCell id="0" />
        <mxCell id="1" parent="0" />
        <mxCell id="FLnLAmMG_InDP3P4FJMe-1" value="Roam/Patrol" style="edgeStyle=orthogonalEdgeStyle;rounded=0;orthogonalLoop=1;jettySize=auto;html=1;entryX=0.5;entryY=1;entryDx=0;entryDy=0;fontSize=16;strokeWidth=3;" parent="1" source="1J10HzMSyGZru3gA6xuf-2" target="1J10HzMSyGZru3gA6xuf-3" edge="1">
          <mxGeometry relative="1" as="geometry" />
        </mxCell>
        <mxCell id="FLnLAmMG_InDP3P4FJMe-3" value="Use" style="edgeStyle=orthogonalEdgeStyle;rounded=0;orthogonalLoop=1;jettySize=auto;html=1;exitX=1;exitY=0.25;exitDx=0;exitDy=0;entryX=0.5;entryY=1;entryDx=0;entryDy=0;fontSize=16;strokeWidth=3;" parent="1" source="1J10HzMSyGZru3gA6xuf-2" target="1J10HzMSyGZru3gA6xuf-5" edge="1">
          <mxGeometry relative="1" as="geometry" />
        </mxCell>
        <mxCell id="FLnLAmMG_InDP3P4FJMe-8" value="Use" style="edgeStyle=orthogonalEdgeStyle;rounded=0;orthogonalLoop=1;jettySize=auto;html=1;exitX=0;exitY=0.25;exitDx=0;exitDy=0;entryX=0.5;entryY=1;entryDx=0;entryDy=0;fontSize=16;strokeWidth=3;" parent="1" source="1J10HzMSyGZru3gA6xuf-2" target="1J10HzMSyGZru3gA6xuf-6" edge="1">
          <mxGeometry relative="1" as="geometry" />
        </mxCell>
        <mxCell id="mqzb8QERGLti67DNAILo-1" value="&lt;font style=&quot;font-size: 16px&quot;&gt;Interact&lt;/font&gt;" style="edgeStyle=orthogonalEdgeStyle;rounded=0;orthogonalLoop=1;jettySize=auto;html=1;exitX=0;exitY=0.75;exitDx=0;exitDy=0;entryX=0.5;entryY=0;entryDx=0;entryDy=0;fontSize=24;strokeWidth=3;" parent="1" source="1J10HzMSyGZru3gA6xuf-2" target="1J10HzMSyGZru3gA6xuf-15" edge="1">
          <mxGeometry relative="1" as="geometry" />
        </mxCell>
        <mxCell id="mqzb8QERGLti67DNAILo-2" value="&lt;font style=&quot;font-size: 16px&quot;&gt;Drive&lt;/font&gt;" style="edgeStyle=orthogonalEdgeStyle;rounded=0;orthogonalLoop=1;jettySize=auto;html=1;exitX=1;exitY=0.75;exitDx=0;exitDy=0;entryX=0.5;entryY=0;entryDx=0;entryDy=0;fontSize=24;strokeWidth=3;" parent="1" source="1J10HzMSyGZru3gA6xuf-2" target="1J10HzMSyGZru3gA6xuf-4" edge="1">
          <mxGeometry relative="1" as="geometry" />
        </mxCell>
        <mxCell id="mqzb8QERGLti67DNAILo-4" value="&lt;font size=&quot;3&quot;&gt;Complete Quests&lt;br&gt;&lt;/font&gt;" style="edgeStyle=orthogonalEdgeStyle;rounded=0;orthogonalLoop=1;jettySize=auto;html=1;exitX=0.5;exitY=1;exitDx=0;exitDy=0;fontSize=24;strokeWidth=3;" parent="1" source="1J10HzMSyGZru3gA6xuf-2" target="mqzb8QERGLti67DNAILo-3" edge="1">
          <mxGeometry relative="1" as="geometry" />
        </mxCell>
        <mxCell id="1J10HzMSyGZru3gA6xuf-2" value="&lt;font style=&quot;font-size: 24px&quot;&gt;Player&lt;/font&gt;" style="rounded=1;whiteSpace=wrap;html=1;strokeWidth=3;" parent="1" vertex="1">
          <mxGeometry x="210" y="210" width="190" height="90" as="geometry" />
        </mxCell>
        <mxCell id="1J10HzMSyGZru3gA6xuf-3" value="&lt;font style=&quot;font-size: 24px&quot;&gt;Open World&lt;br&gt;&lt;/font&gt;" style="rounded=1;whiteSpace=wrap;html=1;strokeWidth=3;" parent="1" vertex="1">
          <mxGeometry x="210" y="10" width="190" height="90" as="geometry" />
        </mxCell>
        <mxCell id="1J10HzMSyGZru3gA6xuf-4" value="&lt;font style=&quot;font-size: 24px&quot;&gt;Vehicle&lt;br&gt;&lt;/font&gt;" style="rounded=1;whiteSpace=wrap;html=1;strokeWidth=3;" parent="1" vertex="1">
          <mxGeometry x="500" y="330" width="190" height="90" as="geometry" />
        </mxCell>
        <mxCell id="1J10HzMSyGZru3gA6xuf-5" value="&lt;font style=&quot;font-size: 24px&quot;&gt;Weapons&lt;br&gt;&lt;/font&gt;" style="rounded=1;whiteSpace=wrap;html=1;strokeWidth=3;" parent="1" vertex="1">
          <mxGeometry x="500" y="90" width="190" height="90" as="geometry" />
        </mxCell>
        <mxCell id="1J10HzMSyGZru3gA6xuf-6" value="&lt;font style=&quot;font-size: 24px&quot;&gt;In Game Items&lt;br&gt;&lt;/font&gt;" style="rounded=1;whiteSpace=wrap;html=1;strokeWidth=3;" parent="1" vertex="1">
          <mxGeometry x="-80" y="90" width="190" height="90" as="geometry" />
        </mxCell>
        <mxCell id="1J10HzMSyGZru3gA6xuf-15" value="&lt;font style=&quot;font-size: 24px&quot;&gt;Game Object&lt;/font&gt;" style="rounded=1;whiteSpace=wrap;html=1;strokeWidth=3;" parent="1" vertex="1">
          <mxGeometry x="-80" y="330" width="190" height="90" as="geometry" />
        </mxCell>
        <mxCell id="mqzb8QERGLti67DNAILo-3" value="&lt;font style=&quot;font-size: 24px&quot;&gt;Single Player Mode&lt;br&gt;&lt;/font&gt;" style="rounded=1;whiteSpace=wrap;html=1;strokeWidth=3;" parent="1" vertex="1">
          <mxGeometry x="210" y="410" width="190" height="90" as="geometry" />
        </mxCell>
      </root>
    </mxGraphModel>
  </diagram>
</mxfile>
